<svg xmlns="http://www.w3.org/2000/svg" width="128" height="128" viewBox="0 0 128 128" fill="none">
  <!-- 背景圆形 -->
  <circle cx="64" cy="64" r="60" fill="#f0f4f8" />
  
  <!-- 锁图标 -->
  <path d="M64 36C55.2 36 48 43.2 48 52V60H44C41.8 60 40 61.8 40 64V92C40 94.2 41.8 96 44 96H84C86.2 96 88 94.2 88 92V64C88 61.8 86.2 60 84 60H80V52C80 43.2 72.8 36 64 36ZM52 52C52 45.4 57.4 40 64 40C70.6 40 76 45.4 76 52V60H52V52ZM84 92H44V64H84V92Z" fill="#4a90e2"/>
  
  <!-- 锁孔 -->
  <circle cx="64" cy="78" r="6" fill="#4a90e2"/>
  
  <!-- 用户图标 -->
  <circle cx="64" cy="48" r="8" fill="#4a90e2" opacity="0.3"/>
  <path d="M64 56C57.4 56 52 50.6 52 44C52 37.4 57.4 32 64 32C70.6 32 76 37.4 76 44C76 50.6 70.6 56 64 56Z" fill="#4a90e2" opacity="0.3"/>
</svg>